<?xml version="1.0" encoding="utf-8"?>
<!-- Generator: Adobe Illustrator 28.3.0, SVG Export Plug-In . SVG Version: 6.00 Build 0)  -->
<svg version="1.1" id="Layer_1" xmlns="http://www.w3.org/2000/svg" xmlns:xlink="http://www.w3.org/1999/xlink" x="0px" y="0px"
	 viewBox="0 0 811 143.2" style="enable-background:new 0 0 811 143.2;" xml:space="preserve">
<style type="text/css">
	.st0{clip-path:url(#SVGID_00000156557692706655556760000008537260390407617469_);}
	.st1{fill:none;stroke:#00508F;stroke-width:2;}
	.st2{enable-background:new    ;}
	.st3{fill:none;stroke:#FFFFFF;stroke-width:0.64;stroke-miterlimit:2.13;}
	.st4{fill:#01508E;}
	.st5{clip-path:url(#SVGID_00000178182900839908020200000013824103534737304223_);}
	.st6{fill:#F8C018;}
</style>
<g>
	<g>
		<defs>
			<rect id="SVGID_1_" x="5.5" y="4" width="800" height="150"/>
		</defs>
		<clipPath id="SVGID_00000062904577997691311360000006389500794147562907_">
			<use xlink:href="#SVGID_1_"  style="overflow:visible;"/>
		</clipPath>
		<g style="clip-path:url(#SVGID_00000062904577997691311360000006389500794147562907_);">
			<path class="st1" d="M810,324.2V70c-0.4,0-0.8,0.1-1.2,0c-4.9-0.3-9.5-1.9-13.2-4.5c-6.8,7.3-18.8,10.4-29.6,9.4
				c-5.9-0.5-11.6-2.3-16-5.7c-4.3-3.4-7.3-8.6-7.3-15c-0.1-8.6,5.3-14.5,12-15.6c0.8-0.1,10.5-1.2,16.3,6c-2.3-10.8-5.2-13-7-15.2
				c-4.8-6.1-12.9-10.8-27.4-10.8c-9.2,0-16,3.2-21.8,8.1c-5.8,5-10.7,11.8-15.2,18.7c-4.6,7-9.3,13.8-14.4,19.6
				c-5.2,6.1-12.4,9.4-21.2,9.8c-5.8,0.2-11-2.5-15-6.5c-4,3.9-9.2,6.5-15,6.5s-10.6-2.4-14.6-6c-4.9,3.8-11.3,6.3-18.3,6.3
				c-6.9,0-13-2.4-17.6-6.1c-4.4,3.7-10,6-16.1,6c-6,0-11.2-2.3-15.1-5.7c-3.9,3.4-8.9,5.6-14.2,5.6c-5.2,0-9.7-2.1-13.1-5.3
				c-3.5,3.2-8,5.9-12.7,5.9c-0.7,0-1.4,0.1-2.1,0.1H1v248.7L810,324.2L810,324.2z"/>
			<g class="st2">
				<path class="st3" d="M35.9,84.4h2.3v12.4c0,2.1-0.2,3.8-0.6,5.1c-0.4,1.3-1.1,2.4-2.2,3.2s-2.4,1.2-4.1,1.2
					c-2.3,0-4.1-0.7-5.2-2.1s-1.7-3.8-1.7-7.4V84.4h2.3v12.4c0,1.9,0.2,3.3,0.5,4.2s0.8,1.5,1.5,2c0.7,0.5,1.5,0.7,2.5,0.7
					c1.7,0,2.9-0.5,3.6-1.4s1.1-2.8,1.1-5.5V84.4z"/>
				<path class="st3" d="M42.1,105.8V84.4h2.4l9.3,16.9V84.4H56v21.5h-2.4l-9.2-16.9v16.9H42.1z"/>
				<path class="st3" d="M60.4,105.8V84.4h2.3v21.5H60.4z"/>
				<path class="st3" d="M71.8,105.8L65,84.4h2.5l4.6,15.6c0.4,1.2,0.7,2.4,0.9,3.5c0.3-1.2,0.6-2.4,0.9-3.5l4.8-15.6h2.4l-6.9,21.5
					H71.8z"/>
				<path class="st3" d="M83.2,105.8V84.4h12.7v2.5H85.5v6.6h9.7V96h-9.7v7.3h10.8v2.5H83.2z"/>
				<path class="st3" d="M99.6,105.8V84.4h7.8c1.6,0,2.8,0.2,3.6,0.6c0.8,0.4,1.4,1.1,1.9,2c0.5,0.9,0.7,2,0.7,3.2
					c0,1.6-0.4,2.9-1.3,3.9c-0.8,1-2.1,1.6-3.7,1.9c0.7,0.4,1.2,0.8,1.5,1.2c0.7,0.8,1.3,1.7,1.8,2.7l3.1,5.8h-2.9l-2.3-4.5
					c-0.9-1.7-1.6-2.9-2.1-3.5s-0.9-1-1.3-1.2c-0.4-0.2-1-0.3-1.8-0.3h-2.7v9.5H99.6z M101.9,93.8h5c1.1,0,1.9-0.1,2.5-0.4
					s1-0.7,1.3-1.2s0.5-1.2,0.5-2c0-1.1-0.3-1.9-1-2.6c-0.6-0.6-1.6-0.9-2.8-0.9h-5.6V93.8z"/>
				<path class="st3" d="M116.5,98.9l2.2-0.2c0.1,1.2,0.4,2.1,0.8,2.8c0.4,0.7,1,1.2,1.8,1.6s1.6,0.6,2.6,0.6c1.4,0,2.5-0.3,3.2-1
					c0.8-0.7,1.1-1.6,1.1-2.6c0-0.6-0.1-1.2-0.4-1.7s-0.7-0.9-1.3-1.2s-1.8-0.7-3.6-1.3c-1.7-0.5-2.8-1-3.5-1.5s-1.2-1.1-1.6-1.9
					c-0.4-0.8-0.6-1.6-0.6-2.6c0-1.7,0.6-3.2,1.7-4.3s2.6-1.7,4.5-1.7c1.3,0,2.5,0.3,3.4,0.8s1.7,1.3,2.3,2.2s0.8,2.1,0.9,3.4
					l-2.2,0.2c-0.1-1.4-0.5-2.4-1.3-3.1s-1.7-1-3-1c-1.3,0-2.3,0.3-3,0.9c-0.7,0.6-1,1.4-1,2.3c0,0.9,0.3,1.5,0.8,2s1.7,1,3.4,1.5
					c1.7,0.5,3,0.9,3.7,1.2c1.1,0.5,1.9,1.3,2.4,2.2s0.8,2,0.8,3.2c0,1.2-0.3,2.3-0.9,3.4s-1.4,1.8-2.4,2.3c-1,0.5-2.2,0.8-3.6,0.8
					c-2.2,0-3.9-0.7-5.2-2S116.6,101.2,116.5,98.9z"/>
				<path class="st3" d="M134.2,105.8V84.4h2.3v21.5H134.2z"/>
				<path class="st3" d="M145.1,105.8V86.9h-5.8v-2.5h14v2.5h-5.8v18.9H145.1z"/>
			</g>
			<g class="st2">
				<path class="st3" d="M160.5,105.8v-9.1l-6.8-12.4h2.8l3.5,6.5c0.7,1.3,1.3,2.5,1.8,3.6c0.5-1.1,1.2-2.4,1.9-3.8l3.4-6.3h2.7
					l-7,12.4v9.1H160.5z"/>
			</g>
			<g class="st2">
				<path class="st3" d="M177.7,95.4c0-3.7,0.8-6.5,2.4-8.4c1.6-2,3.6-3,6-3c1.6,0,3,0.4,4.2,1.3s2.3,2.2,3,3.8
					c0.7,1.7,1.1,3.7,1.1,6c0,3.2-0.7,5.8-2.2,7.8c-1.6,2.2-3.7,3.3-6.3,3.3c-2.6,0-4.7-1.1-6.3-3.4
					C178.5,100.8,177.7,98.3,177.7,95.4z M180.1,95.4c0,2.6,0.6,4.7,1.8,6.2c1.2,1.5,2.6,2.2,4.3,2.2c1.7,0,3.1-0.7,4.3-2.2
					s1.7-3.6,1.7-6.5c0-1.8-0.3-3.5-0.9-5c-0.5-1.1-1.1-2-2.1-2.7c-0.9-0.7-1.9-1-3-1c-1.8,0-3.2,0.7-4.3,2.2S180.1,92.3,180.1,95.4
					z"/>
				<path class="st3" d="M197.7,105.8V84.4h11.9v2.5H200v6.7h8.3v2.5H200v9.8H197.7z"/>
				<path class="st3" d="M218.8,95.4c0-3.7,0.8-6.5,2.4-8.4c1.6-2,3.6-3,6-3c1.6,0,3,0.4,4.2,1.3s2.3,2.2,3,3.8
					c0.7,1.7,1.1,3.7,1.1,6c0,3.2-0.7,5.8-2.2,7.8c-1.6,2.2-3.7,3.3-6.3,3.3c-2.6,0-4.7-1.1-6.3-3.4
					C219.5,100.8,218.8,98.3,218.8,95.4z M221.2,95.4c0,2.6,0.6,4.7,1.8,6.2c1.2,1.5,2.6,2.2,4.3,2.2c1.7,0,3.1-0.7,4.3-2.2
					s1.7-3.6,1.7-6.5c0-1.8-0.3-3.5-0.9-5c-0.5-1.1-1.1-2-2.1-2.7c-0.9-0.7-1.9-1-3-1c-1.8,0-3.2,0.7-4.3,2.2S221.2,92.3,221.2,95.4
					z"/>
			</g>
			<g class="st2">
				<path class="st3" d="M243.1,105.8V86.9h-5.8v-2.5h14v2.5h-5.8v18.9H243.1z"/>
			</g>
			<g class="st2">
				<path class="st3" d="M249.9,105.8l6.8-21.5h2.5l7.2,21.5h-2.7l-2-6.5h-7.4l-1.9,6.5H249.9z M254.9,97h6l-1.8-5.9
					c-0.6-1.8-1-3.3-1.2-4.5c-0.2,1.4-0.5,2.7-1,4.1L254.9,97z"/>
				<path class="st3" d="M276.5,97.4v-2.5l7.5,0v8c-1.1,1.1-2.3,2-3.5,2.5c-1.2,0.6-2.5,0.8-3.8,0.8c-1.7,0-3.3-0.4-4.6-1.3
					c-1.3-0.9-2.4-2.1-3.2-3.8c-0.8-1.7-1.2-3.6-1.2-6c0-2.3,0.4-4.4,1.2-6.1c0.8-1.7,1.8-3,3.1-3.8c1.3-0.8,2.8-1.2,4.5-1.2
					c1.3,0,2.4,0.2,3.4,0.7s1.8,1.2,2.4,2s1.1,2.1,1.4,3.6l-2.1,0.7c-0.3-1.2-0.6-2.1-1.1-2.7c-0.4-0.6-1-1.1-1.7-1.4
					s-1.5-0.5-2.4-0.5c-1.3,0-2.4,0.3-3.3,0.9c-0.9,0.6-1.7,1.6-2.2,2.9c-0.6,1.3-0.8,2.9-0.8,4.8c0,2.9,0.6,5,1.8,6.5
					c1.2,1.4,2.8,2.1,4.7,2.1c0.9,0,1.9-0.2,2.8-0.7s1.7-1,2.3-1.6v-4H276.5z"/>
				<path class="st3" d="M286.7,95.4c0-3.7,0.8-6.5,2.4-8.4c1.6-2,3.6-3,6-3c1.6,0,3,0.4,4.2,1.3s2.3,2.2,3,3.8
					c0.7,1.7,1.1,3.7,1.1,6c0,3.2-0.7,5.8-2.2,7.8c-1.6,2.2-3.7,3.3-6.3,3.3c-2.6,0-4.7-1.1-6.3-3.4
					C287.4,100.8,286.7,98.3,286.7,95.4z M289.1,95.4c0,2.6,0.6,4.7,1.8,6.2c1.2,1.5,2.6,2.2,4.3,2.2c1.7,0,3.1-0.7,4.3-2.2
					s1.7-3.6,1.7-6.5c0-1.8-0.3-3.5-0.9-5c-0.5-1.1-1.1-2-2.1-2.7c-0.9-0.7-1.9-1-3-1c-1.8,0-3.2,0.7-4.3,2.2S289.1,92.3,289.1,95.4
					z"/>
			</g>
		</g>
	</g>
</g>
<g class="st2">
	<path class="st4" d="M25.9,84.4h2.3v12.4c0,2.1-0.2,3.8-0.6,5.1c-0.4,1.3-1.1,2.4-2.2,3.2s-2.4,1.2-4.1,1.2c-2.3,0-4.1-0.7-5.2-2.1
		s-1.7-3.8-1.7-7.4V84.4h2.3v12.4c0,1.9,0.2,3.3,0.5,4.2s0.8,1.5,1.5,2c0.7,0.5,1.5,0.7,2.5,0.7c1.7,0,2.9-0.5,3.6-1.4
		s1.1-2.8,1.1-5.5V84.4z"/>
	<path class="st4" d="M32.1,105.8V84.4h2.4l9.3,16.9V84.4H46v21.5h-2.4l-9.2-16.9v16.9H32.1z"/>
	<path class="st4" d="M50.4,105.8V84.4h2.3v21.5H50.4z"/>
	<path class="st4" d="M61.8,105.8L55,84.4h2.5l4.6,15.6c0.4,1.2,0.7,2.4,0.9,3.5c0.3-1.2,0.6-2.4,0.9-3.5l4.8-15.6h2.4l-6.9,21.5
		H61.8z"/>
	<path class="st4" d="M73.2,105.8V84.4h12.7v2.5H75.5v6.6h9.7V96h-9.7v7.3h10.8v2.5H73.2z"/>
	<path class="st4" d="M89.6,105.8V84.4h7.8c1.6,0,2.8,0.2,3.6,0.6c0.8,0.4,1.4,1.1,1.9,2c0.5,0.9,0.7,2,0.7,3.2
		c0,1.6-0.4,2.9-1.3,3.9c-0.8,1-2.1,1.6-3.7,1.9c0.7,0.4,1.2,0.8,1.5,1.2c0.7,0.8,1.3,1.7,1.8,2.7l3.1,5.8h-2.9l-2.3-4.5
		c-0.9-1.7-1.6-2.9-2.1-3.5s-0.9-1-1.3-1.2c-0.4-0.2-1-0.3-1.8-0.3h-2.7v9.5H89.6z M91.9,93.8h5c1.1,0,1.9-0.1,2.5-0.4
		s1-0.7,1.3-1.2s0.5-1.2,0.5-2c0-1.1-0.3-1.9-1-2.6c-0.6-0.6-1.6-0.9-2.8-0.9h-5.6V93.8z"/>
	<path class="st4" d="M106.5,98.9l2.2-0.2c0.1,1.2,0.4,2.1,0.8,2.8c0.4,0.7,1,1.2,1.8,1.6s1.6,0.6,2.6,0.6c1.4,0,2.5-0.3,3.2-1
		c0.8-0.7,1.1-1.6,1.1-2.6c0-0.6-0.1-1.2-0.4-1.7s-0.7-0.9-1.3-1.2s-1.8-0.7-3.6-1.3c-1.7-0.5-2.8-1-3.5-1.5s-1.2-1.1-1.6-1.9
		c-0.4-0.8-0.6-1.6-0.6-2.6c0-1.7,0.6-3.2,1.7-4.3s2.6-1.7,4.5-1.7c1.3,0,2.5,0.3,3.4,0.8s1.7,1.3,2.3,2.2s0.8,2.1,0.9,3.4l-2.2,0.2
		c-0.1-1.4-0.5-2.4-1.3-3.1s-1.7-1-3-1c-1.3,0-2.3,0.3-3,0.9c-0.7,0.6-1,1.4-1,2.3c0,0.9,0.3,1.5,0.8,2s1.7,1,3.4,1.5
		c1.7,0.5,3,0.9,3.7,1.2c1.1,0.5,1.9,1.3,2.4,2.2s0.8,2,0.8,3.2c0,1.2-0.3,2.3-0.9,3.4s-1.4,1.8-2.4,2.3c-1,0.5-2.2,0.8-3.6,0.8
		c-2.2,0-3.9-0.7-5.2-2S106.6,101.2,106.5,98.9z"/>
	<path class="st4" d="M124.2,105.8V84.4h2.3v21.5H124.2z"/>
	<path class="st4" d="M135.1,105.8V86.9h-5.8v-2.5h14v2.5h-5.8v18.9H135.1z"/>
</g>
<g class="st2">
	<path class="st4" d="M150.5,105.8v-9.1l-6.8-12.4h2.8l3.5,6.5c0.7,1.3,1.3,2.5,1.8,3.6c0.5-1.1,1.2-2.4,1.9-3.8l3.4-6.3h2.7
		l-7,12.4v9.1H150.5z"/>
</g>
<g class="st2">
	<path class="st4" d="M167.7,95.4c0-3.7,0.8-6.5,2.4-8.4c1.6-2,3.6-3,6-3c1.6,0,3,0.4,4.2,1.3s2.3,2.2,3,3.8c0.7,1.7,1.1,3.7,1.1,6
		c0,3.2-0.7,5.8-2.2,7.8c-1.6,2.2-3.7,3.3-6.3,3.3c-2.6,0-4.7-1.1-6.3-3.4C168.5,100.8,167.7,98.3,167.7,95.4z M170.1,95.4
		c0,2.6,0.6,4.7,1.8,6.2c1.2,1.5,2.6,2.2,4.3,2.2c1.7,0,3.1-0.7,4.3-2.2s1.7-3.6,1.7-6.5c0-1.8-0.3-3.5-0.9-5
		c-0.5-1.1-1.1-2-2.1-2.7c-0.9-0.7-1.9-1-3-1c-1.8,0-3.2,0.7-4.3,2.2S170.1,92.3,170.1,95.4z"/>
	<path class="st4" d="M187.7,105.8V84.4h11.9v2.5H190v6.7h8.3v2.5H190v9.8H187.7z"/>
	<path class="st4" d="M208.8,95.4c0-3.7,0.8-6.5,2.4-8.4c1.6-2,3.6-3,6-3c1.6,0,3,0.4,4.2,1.3s2.3,2.2,3,3.8c0.7,1.7,1.1,3.7,1.1,6
		c0,3.2-0.7,5.8-2.2,7.8c-1.6,2.2-3.7,3.3-6.3,3.3c-2.6,0-4.7-1.1-6.3-3.4C209.5,100.8,208.8,98.3,208.8,95.4z M211.2,95.4
		c0,2.6,0.6,4.7,1.8,6.2c1.2,1.5,2.6,2.2,4.3,2.2c1.7,0,3.1-0.7,4.3-2.2s1.7-3.6,1.7-6.5c0-1.8-0.3-3.5-0.9-5
		c-0.5-1.1-1.1-2-2.1-2.7c-0.9-0.7-1.9-1-3-1c-1.8,0-3.2,0.7-4.3,2.2S211.2,92.3,211.2,95.4z"/>
</g>
<g class="st2">
	<path class="st4" d="M233.1,105.8V86.9h-5.8v-2.5h14v2.5h-5.8v18.9H233.1z"/>
</g>
<g class="st2">
	<path class="st4" d="M239.9,105.8l6.8-21.5h2.5l7.2,21.5h-2.7l-2-6.5h-7.4l-1.9,6.5H239.9z M244.9,97h6l-1.8-5.9
		c-0.6-1.8-1-3.3-1.2-4.5c-0.2,1.4-0.5,2.7-1,4.1L244.9,97z"/>
	<path class="st4" d="M266.5,97.4v-2.5l7.5,0v8c-1.1,1.1-2.3,2-3.5,2.5c-1.2,0.6-2.5,0.8-3.8,0.8c-1.7,0-3.3-0.4-4.6-1.3
		c-1.3-0.9-2.4-2.1-3.2-3.8c-0.8-1.7-1.2-3.6-1.2-6c0-2.3,0.4-4.4,1.2-6.1c0.8-1.7,1.8-3,3.1-3.8c1.3-0.8,2.8-1.2,4.5-1.2
		c1.3,0,2.4,0.2,3.4,0.7s1.8,1.2,2.4,2s1.1,2.1,1.4,3.6l-2.1,0.7c-0.3-1.2-0.6-2.1-1.1-2.7c-0.4-0.6-1-1.1-1.7-1.4s-1.5-0.5-2.4-0.5
		c-1.3,0-2.4,0.3-3.3,0.9c-0.9,0.6-1.7,1.6-2.2,2.9c-0.6,1.3-0.8,2.9-0.8,4.8c0,2.9,0.6,5,1.8,6.5c1.2,1.4,2.8,2.1,4.7,2.1
		c0.9,0,1.9-0.2,2.8-0.7s1.7-1,2.3-1.6v-4H266.5z"/>
	<path class="st4" d="M276.7,95.4c0-3.7,0.8-6.5,2.4-8.4c1.6-2,3.6-3,6-3c1.6,0,3,0.4,4.2,1.3s2.3,2.2,3,3.8c0.7,1.7,1.1,3.7,1.1,6
		c0,3.2-0.7,5.8-2.2,7.8c-1.6,2.2-3.7,3.3-6.3,3.3c-2.6,0-4.7-1.1-6.3-3.4C277.4,100.8,276.7,98.3,276.7,95.4z M279.1,95.4
		c0,2.6,0.6,4.7,1.8,6.2c1.2,1.5,2.6,2.2,4.3,2.2c1.7,0,3.1-0.7,4.3-2.2s1.7-3.6,1.7-6.5c0-1.8-0.3-3.5-0.9-5
		c-0.5-1.1-1.1-2-2.1-2.7c-0.9-0.7-1.9-1-3-1c-1.8,0-3.2,0.7-4.3,2.2S279.1,92.3,279.1,95.4z"/>
</g>
<g>
	<g>
		<defs>
			<rect id="SVGID_00000050638291303019717970000009220495652343810228_" x="5.5" y="4" width="800" height="150"/>
		</defs>
		<clipPath id="SVGID_00000161596978790354713590000000312211297712712087_">
			<use xlink:href="#SVGID_00000050638291303019717970000009220495652343810228_"  style="overflow:visible;"/>
		</clipPath>
	</g>
</g>
<g>
	<g>
		<defs>
			<rect id="SVGID_00000149378024423321798020000017176971034433643422_" x="5.5" y="4" width="800" height="150"/>
		</defs>
		<clipPath id="SVGID_00000076598041195866322440000004628582243656624262_">
			<use xlink:href="#SVGID_00000149378024423321798020000017176971034433643422_"  style="overflow:visible;"/>
		</clipPath>
		<g style="clip-path:url(#SVGID_00000076598041195866322440000004628582243656624262_);">
			<g class="st2">
				<path class="st3" d="M320.4,105.8V84.4h6.5l3.9,14.6l3.9-14.6h6.5v21.5h-4V88.9l-4.3,16.9h-4.2l-4.2-16.9v16.9H320.4z"/>
				<path class="st3" d="M364.8,105.8h-4.7l-1.9-4.9h-8.6l-1.8,4.9h-4.6l8.4-21.5h4.6L364.8,105.8z M356.8,97.3l-3-8l-2.9,8H356.8z"
					/>
				<path class="st3" d="M367.1,105.8V84.4h9.1c2.3,0,4,0.2,5,0.6c1,0.4,1.9,1.1,2.5,2.1s0.9,2.1,0.9,3.4c0,1.6-0.5,2.9-1.4,4
					c-0.9,1.1-2.4,1.7-4.2,2c0.9,0.5,1.7,1.1,2.3,1.8s1.4,1.8,2.5,3.5l2.6,4.2h-5.2l-3.1-4.7c-1.1-1.7-1.9-2.7-2.3-3.2
					c-0.4-0.4-0.8-0.7-1.3-0.9c-0.5-0.2-1.2-0.2-2.2-0.2h-0.9v9H367.1z M371.5,93.4h3.2c2.1,0,3.4-0.1,3.9-0.3s0.9-0.5,1.2-0.9
					s0.4-1,0.4-1.6c0-0.7-0.2-1.3-0.6-1.8s-0.9-0.7-1.6-0.8c-0.4,0-1.4-0.1-3.2-0.1h-3.4V93.4z"/>
				<path class="st3" d="M388.7,105.8V84.4h4.3v21.5H388.7z"/>
				<path class="st3" d="M396.1,100.1l4-0.5c0.1,1,0.5,1.8,1,2.3s1.2,0.8,2,0.8c0.8,0,1.6-0.3,2.1-1s0.9-1.5,0.9-2.6
					c0-1-0.3-1.9-0.8-2.5s-1.2-0.9-2-0.9c-0.5,0-1.2,0.1-1.9,0.3l0.5-3.4c1.1,0,2-0.2,2.5-0.7c0.6-0.5,0.9-1.2,0.9-2
					c0-0.7-0.2-1.3-0.6-1.7s-1-0.6-1.7-0.6c-0.7,0-1.3,0.2-1.8,0.7s-0.8,1.2-0.9,2.1l-3.8-0.6c0.3-1.3,0.7-2.3,1.2-3.1
					c0.5-0.8,1.3-1.4,2.2-1.8c1-0.4,2-0.7,3.2-0.7c2,0,3.6,0.6,4.9,1.9c1,1.1,1.5,2.2,1.5,3.6c0,1.9-1,3.4-3.1,4.5
					c1.2,0.3,2.2,0.9,3,1.8s1.1,2,1.1,3.3c0,1.9-0.7,3.5-2.1,4.8s-3.1,2-5.1,2c-1.9,0-3.6-0.6-4.8-1.7S396.3,101.9,396.1,100.1z"/>
				<path class="st3" d="M419.9,84.3c2.1,0,3.7,0.7,4.9,2.2c1.4,1.8,2.1,4.7,2.1,8.7c0,4.1-0.7,7-2.1,8.8c-1.2,1.5-2.8,2.2-4.9,2.2
					c-2.1,0-3.8-0.8-5.1-2.4s-1.9-4.5-1.9-8.6c0-4,0.7-7,2.1-8.7C416.2,85,417.8,84.3,419.9,84.3z M419.9,87.7
					c-0.5,0-0.9,0.2-1.3,0.5c-0.4,0.3-0.7,0.9-0.9,1.7c-0.3,1.1-0.4,2.9-0.4,5.4s0.1,4.3,0.4,5.2c0.3,0.9,0.6,1.6,1,1.9
					s0.8,0.5,1.3,0.5s0.9-0.2,1.3-0.5c0.4-0.3,0.7-0.9,0.9-1.7c0.3-1.1,0.4-2.8,0.4-5.4s-0.1-4.2-0.4-5.2s-0.6-1.6-1-1.9
					C420.8,87.8,420.4,87.7,419.9,87.7z"/>
				<path class="st3" d="M440.1,105.8H436V90.3c-1.5,1.4-3.3,2.4-5.3,3.1v-3.7c1.1-0.4,2.2-1,3.5-2c1.3-1,2.1-2.1,2.6-3.4h3.3V105.8
					z"/>
			</g>
		</g>
	</g>
</g>
<g class="st2">
	<path class="st6" d="M310.4,105.8V84.4h6.5l3.9,14.6l3.9-14.6h6.5v21.5h-4V88.9l-4.3,16.9h-4.2l-4.2-16.9v16.9H310.4z"/>
	<path class="st6" d="M354.8,105.8h-4.7l-1.9-4.9h-8.6l-1.8,4.9h-4.6l8.4-21.5h4.6L354.8,105.8z M346.8,97.3l-3-8l-2.9,8H346.8z"/>
	<path class="st6" d="M357.1,105.8V84.4h9.1c2.3,0,4,0.2,5,0.6c1,0.4,1.9,1.1,2.5,2.1s0.9,2.1,0.9,3.4c0,1.6-0.5,2.9-1.4,4
		c-0.9,1.1-2.4,1.7-4.2,2c0.9,0.5,1.7,1.1,2.3,1.8s1.4,1.8,2.5,3.5l2.6,4.2h-5.2l-3.1-4.7c-1.1-1.7-1.9-2.7-2.3-3.2
		c-0.4-0.4-0.8-0.7-1.3-0.9c-0.5-0.2-1.2-0.2-2.2-0.2h-0.9v9H357.1z M361.5,93.4h3.2c2.1,0,3.4-0.1,3.9-0.3s0.9-0.5,1.2-0.9
		s0.4-1,0.4-1.6c0-0.7-0.2-1.3-0.6-1.8s-0.9-0.7-1.6-0.8c-0.4,0-1.4-0.1-3.2-0.1h-3.4V93.4z"/>
	<path class="st6" d="M378.7,105.8V84.4h4.3v21.5H378.7z"/>
	<path class="st6" d="M386.1,100.1l4-0.5c0.1,1,0.5,1.8,1,2.3s1.2,0.8,2,0.8c0.8,0,1.6-0.3,2.1-1s0.9-1.5,0.9-2.6
		c0-1-0.3-1.9-0.8-2.5s-1.2-0.9-2-0.9c-0.5,0-1.2,0.1-1.9,0.3l0.5-3.4c1.1,0,2-0.2,2.5-0.7c0.6-0.5,0.9-1.2,0.9-2
		c0-0.7-0.2-1.3-0.6-1.7s-1-0.6-1.7-0.6c-0.7,0-1.3,0.2-1.8,0.7s-0.8,1.2-0.9,2.1l-3.8-0.6c0.3-1.3,0.7-2.3,1.2-3.1
		c0.5-0.8,1.3-1.4,2.2-1.8c1-0.4,2-0.7,3.2-0.7c2,0,3.6,0.6,4.9,1.9c1,1.1,1.5,2.2,1.5,3.6c0,1.9-1,3.4-3.1,4.5
		c1.2,0.3,2.2,0.9,3,1.8s1.1,2,1.1,3.3c0,1.9-0.7,3.5-2.1,4.8s-3.1,2-5.1,2c-1.9,0-3.6-0.6-4.8-1.7S386.3,101.9,386.1,100.1z"/>
	<path class="st6" d="M409.9,84.3c2.1,0,3.7,0.7,4.9,2.2c1.4,1.8,2.1,4.7,2.1,8.7c0,4.1-0.7,7-2.1,8.8c-1.2,1.5-2.8,2.2-4.9,2.2
		c-2.1,0-3.8-0.8-5.1-2.4s-1.9-4.5-1.9-8.6c0-4,0.7-7,2.1-8.7C406.2,85,407.8,84.3,409.9,84.3z M409.9,87.7c-0.5,0-0.9,0.2-1.3,0.5
		c-0.4,0.3-0.7,0.9-0.9,1.7c-0.3,1.1-0.4,2.9-0.4,5.4s0.1,4.3,0.4,5.2c0.3,0.9,0.6,1.6,1,1.9s0.8,0.5,1.3,0.5s0.9-0.2,1.3-0.5
		c0.4-0.3,0.7-0.9,0.9-1.7c0.3-1.1,0.4-2.8,0.4-5.4s-0.1-4.2-0.4-5.2s-0.6-1.6-1-1.9C410.8,87.8,410.4,87.7,409.9,87.7z"/>
	<path class="st6" d="M430.1,105.8H426V90.3c-1.5,1.4-3.3,2.4-5.3,3.1v-3.7c1.1-0.4,2.2-1,3.5-2c1.3-1,2.1-2.1,2.6-3.4h3.3V105.8z"
		/>
</g>
<g class="st2">
	<path class="st4" d="M437.2,106.2l5.1-22.2h1.8l-5.1,22.2H437.2z"/>
	<path class="st4" d="M456.4,103.3v2.5h-11.6c0-1,0.3-2.2,0.9-3.4s1.8-2.8,3.6-4.5c2-2,3.3-3.6,4-4.7s0.9-2.1,0.9-3.1
		c0-1.1-0.3-2-1-2.7c-0.6-0.7-1.4-1-2.4-1c-1,0-1.8,0.4-2.5,1.1s-1,1.8-1,3.2l-2.2-0.3c0.2-2.1,0.7-3.6,1.8-4.7c1-1,2.3-1.6,4-1.6
		c1.8,0,3.2,0.6,4.1,1.8s1.4,2.6,1.4,4.1c0,1.4-0.4,2.7-1.1,3.9s-2.1,2.9-4.1,5c-1.3,1.3-2.1,2.2-2.5,2.7s-0.7,1-0.9,1.4H456.4z"/>
	<path class="st4" d="M458.7,95.2c0-3.6,0.5-6.3,1.5-8.2s2.4-2.8,4.3-2.8c1.7,0,3,0.8,4,2.3c1.2,1.8,1.8,4.7,1.8,8.7
		c0,3.6-0.5,6.3-1.5,8.2c-1,1.9-2.4,2.8-4.3,2.8c-1.7,0-3.1-0.8-4.1-2.5S458.7,99.3,458.7,95.2z M460.9,95.2c0,3.5,0.3,5.8,1,7
		c0.7,1.2,1.5,1.8,2.6,1.8c1,0,1.8-0.6,2.5-1.8s1-3.5,1-7c0-3.5-0.3-5.8-1-7c-0.7-1.2-1.5-1.8-2.6-1.8c-1,0-1.8,0.6-2.5,1.8
		C461.2,89.5,460.9,91.8,460.9,95.2z"/>
	<path class="st4" d="M483.8,103.3v2.5h-11.6c0-1,0.3-2.2,0.9-3.4s1.8-2.8,3.6-4.5c2-2,3.3-3.6,4-4.7s0.9-2.1,0.9-3.1
		c0-1.1-0.3-2-1-2.7c-0.6-0.7-1.4-1-2.4-1c-1,0-1.8,0.4-2.5,1.1s-1,1.8-1,3.2l-2.2-0.3c0.2-2.1,0.7-3.6,1.8-4.7c1-1,2.3-1.6,4-1.6
		c1.8,0,3.2,0.6,4.1,1.8s1.4,2.6,1.4,4.1c0,1.4-0.4,2.7-1.1,3.9s-2.1,2.9-4.1,5c-1.3,1.3-2.1,2.2-2.5,2.7s-0.7,1-0.9,1.4H483.8z"/>
	<path class="st4" d="M493,105.8v-5.1h-7.6v-2.4l8-13.9h1.8v13.9h2.4v2.4h-2.4v5.1H493z M493,98.3v-9.7l-5.5,9.7H493z"/>
</g>
</svg>
